# xmcd
#
# Track frame offsets: 
#        150
#        15920
#        30560
#        47228
#        62758
#        81020
#        98893
#        120055
#        136840
#        155318
#        178625
#        203305
#        219770
#        237540
#        257423
#
# Disc length: 3613 seconds
#
# Revision: 4
# Processed by: cddbd v1.5.2PL0 Copyright (c) Steve Scherf et al.
# Submitted via: ExactAudioCopy v0.95b4
#
DISCID=ac0e1b0f
DTITLE=Boyzone - Where We Belong
DYEAR=1998
DGENRE=Popular
TTITLE0=Boyzone - Picture Of You
TTITLE1=Baby Can I Hold You
TTITLE2=All That I Need
TTITLE3=Must Have Been High
TTITLE4=And I
TTITLE5=That's How Love Goes
TTITLE6=Where Did You Go
TTITLE7=I'm Learning (Part One)
TTITLE8=One Kiss At A Time
TTITLE9=While The World Is Going Crazy
TTITLE10=This Is Where I Belong
TTITLE11=Will Be Yours
TTITLE12=Good Conversation
TTITLE13=You Flew Away
TTITLE14=I'm Learning (Part Two)
EXTD=
EXTT0=
EXTT1=
EXTT2=
EXTT3=
EXTT4=
EXTT5=
EXTT6=
EXTT7=
EXTT8=
EXTT9=
EXTT10=
EXTT11=
EXTT12=
EXTT13=
EXTT14=
PLAYORDER=
